<?xml version="1.0" encoding="utf-8"?>
<!-- Generator: Adobe Illustrator 17.0.2, SVG Export Plug-In . SVG Version: 6.00 Build 0)  -->
<!DOCTYPE svg PUBLIC "-//W3C//DTD SVG 1.1//EN" "http://www.w3.org/Graphics/SVG/1.1/DTD/svg11.dtd">
<svg version="1.1" id="Layer_1" xmlns="http://www.w3.org/2000/svg" xmlns:xlink="http://www.w3.org/1999/xlink" x="0px" y="0px"
	 width="223.609px" height="223.609px" viewBox="0 0 223.609 223.609" enable-background="new 0 0 223.609 223.609"
	 xml:space="preserve">
<circle fill="#F8CC97" stroke="#F8CC97" stroke-miterlimit="10" cx="111.804" cy="111.804" r="111.304"/>
<path fill="#FF95A2" stroke="#FF95A2" stroke-width="0.9928" stroke-miterlimit="10" d="M188.729,147.228
	c0.804,15.448-3.415,28.703-13.115,37.231c-8.509,7.466-20.085,10.286-33.051,9.005c-8.886,9.521-19.44,15.031-30.758,15.031
	c-11.358,0-21.942-5.55-30.837-15.131c-13.592,1.4-25.665-1.569-34.342-9.491c-9.481-8.648-13.453-21.872-12.43-37.171
	c-11.983-9.561-19.082-21.415-19.082-34.253c0-13.105,7.397-25.188,19.837-34.838c-1.092-15.965,3.088-29.715,13.056-38.462
	c8.509-7.466,20.085-10.286,33.051-9.005c8.886-9.521,19.43-15.031,30.748-15.031c11.815,0,22.795,6.007,31.919,16.312
	c13.155-1.132,24.811,1.896,33.26,9.601c9.481,8.647,13.453,21.882,12.43,37.171c11.983,9.561,19.082,21.415,19.082,34.253
	C208.496,125.535,201.129,137.588,188.729,147.228z"/>
<line fill="none" stroke="#FF6970" stroke-width="3.7356" stroke-linecap="round" stroke-miterlimit="10" x1="33.553" y1="102.112" x2="52.94" y2="104.804"/>
<line fill="none" stroke="#FF6970" stroke-width="3.7356" stroke-linecap="round" stroke-miterlimit="10" x1="153.343" y1="47.556" x2="158.906" y2="66.322"/>
<line fill="none" stroke="#FF6970" stroke-width="3.7356" stroke-linecap="round" stroke-miterlimit="10" x1="120.218" y1="169.374" x2="133.578" y2="155.07"/>
<line fill="none" stroke="#FF6970" stroke-width="3.7356" stroke-linecap="round" stroke-miterlimit="10" x1="177.536" y1="124.318" x2="176.011" y2="104.804"/>
<line fill="none" stroke="#FAE48C" stroke-width="3.7356" stroke-linecap="round" stroke-miterlimit="10" x1="62.467" y1="55.593" x2="81.854" y2="58.285"/>
<line fill="none" stroke="#FAE48C" stroke-width="3.7356" stroke-linecap="round" stroke-miterlimit="10" x1="74.468" y1="171.732" x2="69.853" y2="152.711"/>
<line fill="none" stroke="#FAE48C" stroke-width="3.7356" stroke-linecap="round" stroke-miterlimit="10" x1="156.124" y1="168.781" x2="170.65" y2="155.662"/>
<line fill="none" stroke="#FAE48C" stroke-width="3.7356" stroke-linecap="round" stroke-miterlimit="10" x1="111.27" y1="42.717" x2="129.166" y2="34.79"/>
<line fill="none" stroke="#B3E5D4" stroke-width="3.7356" stroke-linecap="round" stroke-miterlimit="10" x1="95.692" y1="171.732" x2="101.255" y2="190.498"/>
<line fill="none" stroke="#B3E5D4" stroke-width="3.7356" stroke-linecap="round" stroke-miterlimit="10" x1="70.144" y1="114.561" x2="54.79" y2="126.701"/>
<line fill="none" stroke="#B3E5D4" stroke-width="3.7356" stroke-linecap="round" stroke-miterlimit="10" x1="123.31" y1="57.217" x2="130.486" y2="75.427"/>
<line fill="none" stroke="#B3E5D4" stroke-width="3.7356" stroke-linecap="round" stroke-miterlimit="10" x1="60.348" y1="84.185" x2="79.358" y2="79.524"/>
<line fill="none" stroke="#B3E5D4" stroke-width="3.7356" stroke-linecap="round" stroke-miterlimit="10" x1="146.348" y1="127.141" x2="165.901" y2="126.26"/>
<line fill="none" stroke="#FAE48C" stroke-width="3.7356" stroke-linecap="round" stroke-miterlimit="10" x1="149.957" y1="92.112" x2="167.854" y2="84.185"/>
<circle fill="#B3E5D4" cx="111.804" cy="111.804" r="27.391"/>
</svg>
